HIERARCHY
ROOT Hips
{
	OFFSET 0.00000 0.00000 0.00000
	CHANNELS 6 Xposition Yposition Zposition Zrotation Yrotation Xrotation 
	JOINT LHipJoint
	{
		OFFSET 0 0 0
		CHANNELS 3 Zrotation Yrotation Xrotation
		JOINT LeftHip
		{
			OFFSET 1.56857 -1.73443 1.15205
			CHANNELS 3 Zrotation Yrotation Xrotation
			JOINT LeftKnee
			{
				OFFSET 2.39362 -6.57643 0.00000
				CHANNELS 3 Zrotation Yrotation Xrotation
				JOINT LeftAnkle
				{
					OFFSET 2.50952 -6.89485 0.00000
					CHANNELS 3 Zrotation Yrotation Xrotation
					JOINT LeftToe
					{
						OFFSET 0.17171 -0.47178 1.88682
						CHANNELS 3 Zrotation Yrotation Xrotation
						End Site
						{
							OFFSET 0.00000 -0.00000 0.98146
						}
					}
				}
			}
		}
	}
	JOINT RHipJoint
	{
		OFFSET 0 0 0
		CHANNELS 3 Zrotation Yrotation Xrotation
		JOINT RightHip
		{
			OFFSET -1.28153 -1.73443 1.15205
			CHANNELS 3 Zrotation Yrotation Xrotation
			JOINT RightKnee
			{
				OFFSET -2.26861 -6.23296 0.00000
				CHANNELS 3 Zrotation Yrotation Xrotation
				JOINT RightAnkle
				{
					OFFSET -2.54143 -6.98254 0.00000
					CHANNELS 3 Zrotation Yrotation Xrotation
					JOINT RightToe
					{
						OFFSET -0.23309 -0.64041 1.93119
						CHANNELS 3 Zrotation Yrotation Xrotation
						End Site
						{
							OFFSET -0.00000 -0.00000 1.02013
						}
					}
				}
			}
		}
	}
	JOINT lowerback
	{
		OFFSET 0 0 0
		CHANNELS 3 Zrotation Yrotation Xrotation
		JOINT Chest
		{
			OFFSET -0.07096 2.10460 -0.27878
			CHANNELS 3 Zrotation Yrotation Xrotation
			JOINT Chest2
			{
				OFFSET -0.00826 2.13662 -0.08279
				CHANNELS 3 Zrotation Yrotation Xrotation
				JOINT lowerneck
				{
					OFFSET 0 0 0
					CHANNELS 3 Zrotation Yrotation Xrotation
					JOINT Neck
					{
						OFFSET 0.03239 1.77799 0.24435
						CHANNELS 3 Zrotation Yrotation Xrotation
						JOINT Head
						{
							OFFSET 0.01026 1.74194 -0.49664
							CHANNELS 3 Zrotation Yrotation Xrotation
							End Site
							{
								OFFSET 0.00170 1.83057 -0.19653
							}
						}
					}
				}
				JOINT LeftCollar
				{
					OFFSET 0 0 0
					CHANNELS 3 Zrotation Yrotation Xrotation
					JOINT LeftShoulder
					{
						OFFSET 3.19178 1.35907 -0.31412
CHANNELS 3 Zrotation Xrotation Yrotation
						JOINT LeftElbow
						{
OFFSET 0 -4.852470 -0.000000
CHANNELS 3 Zrotation Xrotation Yrotation
							JOINT LeftWrist
							{
OFFSET 0 -3.555840 0.000000
CHANNELS 3 Zrotation Xrotation Yrotation
								JOINT lhand
								{
									OFFSET 0 0 0
CHANNELS 3 Zrotation Xrotation Yrotation
									JOINT LFingers
									{
OFFSET 0 -0.693200 0.000000
CHANNELS 3 Zrotation Xrotation Yrotation
										End Site
										{
OFFSET 0 -0.558880 0.000000
										}
									}
								}
								JOINT LThumb
								{
OFFSET 0 0.000000 0.000000
CHANNELS 3 Zrotation Xrotation Yrotation
									End Site
									{
OFFSET 0 -0.567410 0.567410
									}
								}
							}
						}
					}
				}
				JOINT RightCollar
				{
					OFFSET 0 0 0
					CHANNELS 3 Zrotation Yrotation Xrotation
					JOINT RightShoulder
					{
						OFFSET -3.28999 1.24191 -0.26899
CHANNELS 3 Zrotation Xrotation Yrotation
						JOINT RightElbow
						{
OFFSET 0 -4.644620 0.000000
CHANNELS 3 Zrotation Xrotation Yrotation
							JOINT RightWrist
							{
OFFSET 0 -3.407030 0.000000
CHANNELS 3 Zrotation Xrotation Yrotation
								JOINT rhand
								{
									OFFSET 0 0 0
CHANNELS 3 Zrotation Xrotation Yrotation
									JOINT RFingers
									{
OFFSET 0 -0.619580 0.000000
CHANNELS 3 Zrotation Xrotation Yrotation
										End Site
										{
OFFSET 0 -0.499520 0.000000
										}
									}
								}
								JOINT RThumb
								{
OFFSET 0 0.000000 0.000000
CHANNELS 3 Zrotation Xrotation Yrotation
									End Site
									{
OFFSET 0 -0.507150 0.507150
									}
								}
							}
						}
					}
				}
			}
		}
	}
}
MOTION
Frames: 9
Frame Time: 0.008333333333333333
-29.885200 16.476200 2.079200 41.180100 83.422000 42.838700 0.000000 0.000000 0.000000 -22.993600 0.407500 -4.135100 1.931800 8.722600 24.931400 2.089200 3.614900 -28.788800 1.278600 -7.166000 -20.208100 0.000000 0.000000 0.000000 16.602800 -5.807100 -8.170600 -1.936500 -8.732600 24.962300 -1.835800 13.218200 -24.654800 -0.318000 -3.625200 10.024500 -7.921000 2.012100 1.777800 -1.634200 2.662900 1.873300 2.706300 1.281100 0.664300 2.635400 0.564200 -19.054700 1.363300 -0.169700 23.523900 0.041200 0.422200 10.736100 0.000000 -0.000000 0.000000 5.764700 2.126900 -34.520700 13.788700 -22.431800 2.747000 16.775400 3.737600 27.397100 0.000000 0.000000 0.000000 -7.125000 0.000000 0.000000 -7.976300 1.791700 -7.799700 0.000000 -0.000000 0.000000 -2.437400 3.930500 35.739100 -15.638600 -25.028100 -3.491600 -14.359600 9.122900 26.967000 0.000000 0.000000 0.000000 7.125000 0.000000 -0.000000 17.319900 56.838200 -5.130700
-29.874060 16.472252 2.099261 42.093573 83.600460 43.721079 0.000000 0.000000 0.000000 -22.707065 1.028756 -4.655040 2.015979 8.898750 25.479570 2.089310 2.976288 -28.504845 1.373794 -7.417180 -20.957515 0.000000 0.000000 0.000000 16.781527 -5.626528 -7.832799 -1.902169 -8.659132 24.734815 -1.876745 12.885137 -24.866264 -0.395975 -4.038189 11.184506 -7.722395 1.976037 2.100090 -1.632032 2.579582 1.796800 2.586791 1.251376 0.420337 2.883507 0.578596 -19.510461 0.877067 -0.123964 23.668146 -0.167715 0.404922 10.875615 0.000000 0.000000 0.000000 5.860018 2.666885 -34.412676 14.214650 -23.040170 2.911986 17.458836 2.891843 27.355626 0.000000 0.000000 0.000000 -7.125000 0.000000 0.000000 -7.565978 1.722678 -7.400469 0.000000 0.000000 0.000000 -2.514817 3.828074 36.216965 -15.635313 -25.023690 -3.490240 -14.168359 9.017167 27.111017 0.000000 0.000000 0.000000 7.125000 0.000000 0.000000 17.603484 56.936187 -5.260472
-29.861465 16.473532 2.122491 40.071762 83.839335 41.685626 0.000000 0.000000 0.000000 -22.203449 1.213780 -5.113637 2.156826 9.185280 26.376809 2.166586 2.498461 -28.802253 1.334209 -7.314221 -20.649637 0.000000 0.000000 0.000000 17.261172 -5.691429 -7.457269 -1.821929 -8.484847 24.196720 -1.868805 12.770038 -24.800142 -0.406133 -4.091001 11.332766 -7.311608 1.916501 2.359754 -1.474802 2.472369 1.730986 2.513067 1.206446 0.225497 2.902045 0.666608 -19.556115 0.509114 0.082444 23.415563 -0.274200 0.445549 10.791719 0.000000 0.000000 0.000000 5.743147 3.086218 -33.933522 14.500697 -23.446012 3.024492 17.802131 2.416661 27.253023 0.000000 0.000000 0.000000 -7.125000 0.000000 0.000000 -7.351940 1.769920 -7.181324 0.000000 0.000000 0.000000 -2.734428 3.553601 36.876825 -15.530688 -24.880181 -3.446145 -14.106557 9.024993 27.132487 0.000000 0.000000 0.000000 7.125000 0.000000 0.000000 17.680039 56.943847 -5.287662
-29.847882 16.469181 2.145068 34.416909 84.208788 35.836936 0.000000 0.000000 0.000000 -21.273254 1.413577 -5.489289 2.343943 9.547206 27.523429 2.201209 2.075440 -28.852247 1.335549 -7.317636 -20.659893 0.000000 0.000000 0.000000 18.095590 -6.046761 -6.864473 -1.722911 -8.262859 23.515744 -1.830014 12.938593 -24.577459 -0.439157 -4.252096 11.786961 -6.458088 1.966303 2.666738 -1.305830 2.528463 1.811174 2.202119 1.238956 0.156247 2.936374 0.791924 -19.672959 0.300277 0.290799 23.189372 -0.325015 0.510089 10.733001 0.000000 0.000000 0.000000 5.919123 3.351776 -34.150181 14.807779 -23.877280 3.147942 18.023537 1.570405 27.050605 0.000000 0.000000 0.000000 -7.125000 0.000000 0.000000 -7.200965 1.937934 -7.008962 0.000000 0.000000 0.000000 -2.804783 3.187433 37.600811 -15.531231 -24.880851 -3.446387 -14.382911 9.625734 28.145883 0.000000 0.000000 0.000000 7.125000 0.000000 0.000000 18.038817 57.969649 -5.849702
-29.833146 16.452949 2.167960 29.510797 84.528137 30.708431 0.000000 0.000000 0.000000 -20.496555 1.233334 -5.837463 2.563553 9.952098 28.822197 2.231751 1.843435 -28.955766 1.359189 -7.379481 -20.844510 0.000000 0.000000 0.000000 18.806625 -6.368155 -6.280615 -1.631919 -8.053049 22.875448 -1.811188 12.995955 -24.465785 -0.376132 -3.938010 10.902454 -5.642267 1.981751 3.056341 -1.230383 2.540213 1.902229 1.813613 1.251096 0.059849 2.941484 0.852408 -19.895124 0.174731 0.388359 22.963376 -0.356977 0.531754 10.693240 0.000000 0.000000 0.000000 6.139592 3.551921 -34.079135 15.063578 -24.234588 3.252027 17.008991 1.295546 27.100791 0.000000 0.000000 0.000000 -7.125000 0.000000 0.000000 -7.810966 2.053529 -7.597753 0.000000 0.000000 0.000000 -2.803748 2.834289 38.061983 -15.503156 -24.842358 -3.434589 -14.532947 9.669981 27.751412 0.000000 0.000000 0.000000 7.125000 0.000000 0.000000 17.628620 57.625189 -5.565015
-29.819599 16.442504 2.187344 27.720337 84.641766 28.843831 0.000000 0.000000 0.000000 -20.116577 1.429804 -6.629040 2.817181 10.391339 30.255171 2.207038 1.764302 -28.767801 1.450781 -7.612139 -21.542902 0.000000 0.000000 0.000000 19.080983 -6.610282 -5.934414 -1.556292 -7.872891 22.328810 -1.777284 13.020441 -24.252465 -0.429581 -4.200066 11.641250 -5.348358 2.061954 3.456841 -1.158360 2.623768 1.865029 1.704910 1.300675 -0.199818 2.870927 0.767494 -20.201701 0.090510 0.295320 22.929675 -0.389165 0.469451 10.737030 0.000000 0.000000 0.000000 6.377295 3.939573 -34.783661 15.469321 -24.795843 3.420336 17.367539 -0.072031 26.842821 0.000000 0.000000 0.000000 -7.125000 0.000000 0.000000 -7.573329 2.255674 -7.335147 0.000000 0.000000 0.000000 -2.995163 2.907397 38.508942 -15.909913 -25.397943 -3.607519 -14.282777 9.258400 27.735636 0.000000 0.000000 0.000000 7.125000 0.000000 0.000000 17.876486 57.556477 -5.616697
-29.811568 16.442482 2.204130 24.885641 85.020032 25.909747 0.000000 0.000000 0.000000 -19.494393 1.746801 -7.681342 3.130348 10.902039 31.951480 2.145456 1.660716 -28.333063 1.489292 -7.709469 -21.835225 0.000000 0.000000 0.000000 19.570092 -7.033021 -5.509882 -1.468876 -7.658778 21.682440 -1.723928 13.096156 -23.920318 -0.456634 -4.334319 12.019356 -4.811834 2.024673 3.977777 -1.022404 2.554190 1.816235 1.528410 1.274993 -0.520915 2.786949 0.734250 -20.189695 -0.018554 0.296810 22.618493 -0.414919 0.441651 10.619867 0.000000 0.000000 0.000000 6.467617 4.287588 -34.996032 15.758274 -25.191437 3.542629 16.151512 -0.155473 26.810043 0.000000 0.000000 0.000000 -7.125000 0.000000 0.000000 -8.298973 2.481639 -8.017356 0.000000 0.000000 0.000000 -3.084960 2.613378 38.943409 -15.945584 -25.446741 -3.622590 -14.319364 9.242274 27.799259 0.000000 0.000000 0.000000 7.125000 0.000000 0.000000 17.878462 57.625176 -5.646546
-29.801461 16.444036 2.222100 17.828176 85.506476 18.791324 0.000000 0.000000 0.000000 -18.529055 1.719216 -8.787297 3.521567 11.492200 33.961678 2.159223 1.113779 -28.219471 1.185596 -6.903944 -19.433552 0.000000 0.000000 0.000000 20.484634 -7.225554 -4.922787 -1.361672 -7.385057 20.861631 -1.736077 12.687695 -23.937753 -0.402218 -4.071093 11.276719 -4.053567 1.929538 4.371289 -0.708839 2.435593 1.879926 1.421069 1.218430 -0.651673 2.484504 0.810206 -20.097912 0.099648 0.456859 21.923132 -0.300555 0.488957 10.349947 0.000000 0.000000 0.000000 6.459025 4.507980 -35.278033 16.074551 -25.621561 3.678149 16.408034 -0.938894 26.632739 0.000000 0.000000 0.000000 -7.125000 0.000000 0.000000 -8.130780 2.621007 -7.830780 0.000000 0.000000 0.000000 -3.230353 2.190105 39.111703 -15.894114 -25.376682 -3.600529 -14.353720 9.380278 27.307693 0.000000 0.000000 0.000000 7.125000 0.000000 0.000000 17.533992 57.163164 -5.335847
-29.785508 16.440920 2.238747 11.479301 85.974424 12.335368 0.000000 0.000000 0.000000 -17.694744 1.720372 -9.965877 3.987610 12.141839 36.238587 2.136703 0.490854 -27.854047 0.930035 -6.140241 -17.192766 0.000000 0.000000 0.000000 21.210854 -7.580863 -4.189368 -1.230520 -7.034120 19.816809 -1.732872 12.308918 -23.863207 -0.409644 -4.108463 11.381936 -3.259885 1.838952 4.714781 -0.571545 2.337917 2.000230 1.115142 1.172058 -0.689997 2.389489 0.834027 -20.354824 0.143274 0.488738 21.587964 -0.265103 0.492463 10.276389 0.000000 0.000000 0.000000 6.365211 4.478853 -34.758946 16.158742 -25.735423 3.714661 16.582062 -0.897811 26.657395 0.000000 0.000000 0.000000 -7.125000 0.000000 0.000000 -8.028432 2.569060 -7.737787 0.000000 0.000000 0.000000 -3.200467 1.934253 39.301464 -16.140653 -25.710947 -3.706806 -14.367433 9.399300 27.504831 0.000000 0.000000 0.000000 7.125000 0.000000 0.000000 17.642565 57.354439 -5.452511
